<svg width="657.9px" height="122px" xmlns="http://www.w3.org/2000/svg" viewBox="-78.94687499999998 14 657.89375 122" style="background: rgba(0, 0, 0, 0)" preserveAspectRatio="xMidYMid"><defs><linearGradient id="editing-sticker-gradient" x1="0.5" y1="0.2" x2="0.5" y2="0.8"><stop offset="0" stop-color="#ffdd99"></stop><stop offset="1" stop-color="#99ddff"></stop></linearGradient><filter id="editing-sticker" x="-100%" y="-100%" width="300%" height="300%"><feMorphology operator="erode" radius="1" in="SourceAlpha" result="alpha-erode"></feMorphology><feConvolveMatrix order="3,3" divisor="1" kernelMatrix="0 1 0 1 1 1 0 1 0" in="alpha-erode" result="alpha-round"></feConvolveMatrix><feMorphology operator="dilate" radius="3.5" in="alpha-round" result="dilate-shadow"></feMorphology><feGaussianBlur in="dilate-shadow" stdDeviation="1.5" result="shadow"></feGaussianBlur><feFlood flood-color="#fff" result="flood-sticker"></feFlood><feComposite operator="in" in="flood-sticker" in2="alpha-round" result="comp-sticker"></feComposite><feMorphology operator="dilate" radius="3" in="comp-sticker" result="morph-sticker"></feMorphology><feConvolveMatrix order="3,3" divisor="1" kernelMatrix="0 1 0 1 1 1 0 1 0" in="morph-sticker" result="sticker"></feConvolveMatrix><feMerge><feMergeNode in="shadow"></feMergeNode><feMergeNode in="sticker"></feMergeNode><feMergeNode in="SourceGraphic"></feMergeNode></feMerge></filter></defs><g transform="matrix(1,0,0,1,0.8,-1.9)" filter="url(#editing-sticker)"><g transform="matrix(1.3,0,0,1.8,-46.9,219.8)"><path d="M 3.5 -64.5 L -10.5 -64.5 L -2.4 -106.8 L 11.7 -106.8 L 3.5 -64.5 Z M 59.2 -63.2 L 59.2 -63.2 L 59.2 -63.2 Q 51.5 -63.2 51.5 -69.3 L 51.5 -69.3 L 51.5 -69.3 Q 51.5 -71.9 52.6 -77 L 52.6 -77 L 52.6 -77 Q 53.7 -82.1 54.1 -84.1 L 54.1 -84.1 L 54.1 -84.1 Q 55 -88.8 55 -90.3 L 55 -90.3 L 55 -90.3 Q 55 -93.5 52.6 -93.5 L 52.6 -93.5 L 52.6 -93.5 Q 51 -93.5 49.4 -91.3 L 49.4 -91.3 L 49.4 -91.3 Q 47.9 -89.1 47.2 -84.7 L 47.2 -84.7 L 43.2 -64.5 L 30.7 -63.2 L 34.2 -80.7 L 34.2 -80.7 Q 34.8 -83.5 35.3 -86.8 L 35.3 -86.8 L 35.3 -86.8 Q 35.8 -90.1 35.8 -90.6 L 35.8 -90.6 L 35.8 -90.6 Q 35.8 -93.5 33.6 -93.5 L 33.6 -93.5 L 33.6 -93.5 Q 32.1 -93.5 30.5 -91.3 L 30.5 -91.3 L 30.5 -91.3 Q 28.9 -89.2 28 -84.7 L 28 -84.7 L 24.1 -64.5 L 11.5 -63.2 L 18.3 -97.2 L 28.7 -98.4 L 27.6 -92 L 27.6 -92 Q 29.3 -95.4 32.3 -96.9 L 32.3 -96.9 L 32.3 -96.9 Q 35.4 -98.4 40.2 -98.4 L 40.2 -98.4 L 40.2 -98.4 Q 43 -98.4 44.8 -97.1 L 44.8 -97.1 L 44.8 -97.1 Q 46.5 -95.8 47.1 -93.6 L 47.1 -93.6 L 47.1 -93.6 Q 48.2 -95.8 51 -97.1 L 51 -97.1 L 51 -97.1 Q 53.8 -98.4 57.2 -98.4 L 57.2 -98.4 L 57.2 -98.4 Q 60.6 -98.4 62.3 -97.7 L 62.3 -97.7 L 62.3 -97.7 Q 64 -97 65 -95.8 L 65 -95.8 L 65 -95.8 Q 66.8 -93.5 66.8 -89.4 L 66.8 -89.4 L 66.8 -89.4 Q 66.8 -85.4 65 -77 L 65 -77 L 65 -77 Q 64.1 -72.9 64.1 -71.4 L 64.1 -71.4 L 64.1 -71.4 Q 64.1 -69.9 65 -69 L 65 -69 L 65 -69 Q 65.9 -68.1 67.2 -68 L 67.2 -68 L 67.2 -68 Q 66.5 -65.8 64.3 -64.5 L 64.3 -64.5 L 64.3 -64.5 Q 62.1 -63.2 59.2 -63.2 Z M 74.9 -66.4 L 74.9 -66.4 L 74.9 -66.4 Q 73.4 -68.1 72.7 -70.7 L 72.7 -70.7 L 72.7 -70.7 Q 72 -73.4 72 -77.6 L 72 -77.6 L 72 -77.6 Q 72 -81.9 73.5 -85.8 L 73.5 -85.8 L 73.5 -85.8 Q 75 -89.7 77.6 -92.6 L 77.6 -92.6 L 77.6 -92.6 Q 83.2 -98.4 92.2 -98.4 L 92.2 -98.4 L 92.2 -98.4 Q 95.5 -98.4 97.9 -97.4 L 97.9 -97.4 L 108.8 -98.4 L 104.1 -73.5 L 104.1 -73.5 Q 103.9 -72.7 103.9 -71.3 L 103.9 -71.3 L 103.9 -71.3 Q 103.9 -69.9 104.8 -69 L 104.8 -69 L 104.8 -69 Q 105.6 -68.1 106.9 -68 L 106.9 -68 L 106.9 -68 Q 106.3 -65.8 103.9 -64.5 L 103.9 -64.5 L 103.9 -64.5 Q 101.6 -63.2 99 -63.2 L 99 -63.2 L 99 -63.2 Q 96.3 -63.2 94.6 -64.2 L 94.6 -64.2 L 94.6 -64.2 Q 92.8 -65.2 92.3 -66.9 L 92.3 -66.9 L 92.3 -66.9 Q 91.3 -65.3 89.1 -64.3 L 89.1 -64.3 L 89.1 -64.3 Q 86.9 -63.2 84 -63.2 L 84 -63.2 L 84 -63.2 Q 81.1 -63.2 78.7 -64 L 78.7 -64 L 78.7 -64 Q 76.4 -64.8 74.9 -66.4 Z M 88.4 -92.4 L 88.4 -92.4 L 88.4 -92.4 Q 87.6 -91.3 87 -89.3 L 87 -89.3 L 87 -89.3 Q 86.4 -87.4 85.3 -82.2 L 85.3 -82.2 L 85.3 -82.2 Q 84.2 -76.9 84.2 -73.2 L 84.2 -73.2 L 84.2 -73.2 Q 84.2 -69.5 84.8 -68.4 L 84.8 -68.4 L 84.8 -68.4 Q 85.4 -67.3 86.4 -67.3 L 86.4 -67.3 L 86.4 -67.3 Q 88.5 -67.3 90 -69.3 L 90 -69.3 L 90 -69.3 Q 91.5 -71.2 92 -74.7 L 92 -74.7 L 95.4 -93.5 L 95.4 -93.5 Q 94.1 -94.6 92.5 -94.6 L 92.5 -94.6 L 92.5 -94.6 Q 91 -94.6 90 -94.1 L 90 -94.1 L 90 -94.1 Q 89.1 -93.6 88.4 -92.4 Z M 116.6 -91.3 L 116.6 -91.3 L 116.6 -91.3 Q 118.7 -94.3 122 -96.4 L 122 -96.4 L 122 -96.4 Q 125.3 -98.4 129.4 -98.4 L 129.4 -98.4 L 129.4 -98.4 Q 133.4 -98.4 135.3 -97.2 L 135.3 -97.2 L 147.9 -98.4 L 143.5 -73.9 L 143.5 -73.9 Q 141.3 -61.3 136.5 -56.4 L 136.5 -56.4 L 136.5 -56.4 Q 132 -51.7 123.2 -51.7 L 123.2 -51.7 L 123.2 -51.7 Q 116.4 -51.7 112.6 -53.8 L 112.6 -53.8 L 112.6 -53.8 Q 108.8 -55.9 108.8 -59.5 L 108.8 -59.5 L 108.8 -59.5 Q 108.8 -62.1 110.7 -63.6 L 110.7 -63.6 L 110.7 -63.6 Q 112.7 -65.1 115.8 -65.1 L 115.8 -65.1 L 115.8 -65.1 Q 118.5 -65.1 120.5 -63.9 L 120.5 -63.9 L 120.5 -63.9 Q 121.7 -63.2 122.3 -62.3 L 122.3 -62.3 L 122.3 -62.3 Q 120.8 -61.1 120.8 -59 L 120.8 -59 L 120.8 -59 Q 120.8 -56.2 123.4 -56.2 L 123.4 -56.2 L 123.4 -56.2 Q 127.7 -56.2 130.1 -66.3 L 130.1 -66.3 L 130.1 -66.3 Q 130.8 -69.1 131.4 -71.8 L 131.4 -71.8 L 131.4 -71.8 Q 128.5 -68.3 122 -68.3 L 122 -68.3 L 122 -68.3 Q 117.5 -68.3 114.8 -70.5 L 114.8 -70.5 L 114.8 -70.5 Q 112.2 -72.7 112.2 -77.8 L 112.2 -77.8 L 112.2 -77.8 Q 112.2 -81 113.3 -84.6 L 113.3 -84.6 L 113.3 -84.6 Q 114.4 -88.2 116.6 -91.3 Z M 124.9 -77.6 L 124.9 -77.6 L 124.9 -77.6 Q 124.9 -73.2 127.1 -73.2 L 127.1 -73.2 L 127.1 -73.2 Q 128.7 -73.2 130.1 -74.9 L 130.1 -74.9 L 130.1 -74.9 Q 131.3 -76.2 131.7 -78.2 L 131.7 -78.2 L 135 -94.7 L 135 -94.7 Q 134.7 -94.7 134.4 -94.9 L 134.4 -94.9 L 134.4 -94.9 Q 133.7 -95.1 132.9 -95.1 L 132.9 -95.1 L 132.9 -95.1 Q 129 -95.1 126.7 -88.7 L 126.7 -88.7 L 126.7 -88.7 Q 124.9 -83.7 124.9 -77.6 Z M 176.3 -75.3 L 176.3 -75.3 L 176.3 -75.3 Q 177.9 -74.3 177.9 -71.9 L 177.9 -71.9 L 177.9 -71.9 Q 177.9 -69.5 176.7 -67.9 L 176.7 -67.9 L 176.7 -67.9 Q 175.4 -66.4 173.5 -65.4 L 173.5 -65.4 L 173.5 -65.4 Q 169.4 -63.2 164.9 -63.2 L 164.9 -63.2 L 164.9 -63.2 Q 160.5 -63.2 157.9 -64.2 L 157.9 -64.2 L 157.9 -64.2 Q 155.3 -65.2 153.6 -67 L 153.6 -67 L 153.6 -67 Q 150.2 -70.3 150.2 -76.6 L 150.2 -76.6 L 150.2 -76.6 Q 150.2 -86.2 155.5 -92.1 L 155.5 -92.1 L 155.5 -92.1 Q 161.1 -98.4 170.9 -98.4 L 170.9 -98.4 L 170.9 -98.4 Q 177 -98.4 180 -95.9 L 180 -95.9 L 180 -95.9 Q 182.2 -94 182.2 -90.8 L 182.2 -90.8 L 182.2 -90.8 Q 182.2 -79.6 162.8 -79.6 L 162.8 -79.6 L 162.8 -79.6 Q 162.5 -77.9 162.5 -76.5 L 162.5 -76.5 L 162.5 -76.5 Q 162.5 -73.5 163.8 -72.4 L 163.8 -72.4 L 163.8 -72.4 Q 165.1 -71.3 167.6 -71.3 L 167.6 -71.3 L 167.6 -71.3 Q 170 -71.3 172.6 -72.4 L 172.6 -72.4 L 172.6 -72.4 Q 175.2 -73.5 176.3 -75.3 Z M 163.2 -82.3 L 163.2 -82.3 L 163.2 -82.3 Q 167.8 -82.3 170.4 -85.1 L 170.4 -85.1 L 170.4 -85.1 Q 173 -87.8 173 -92.1 L 173 -92.1 L 173 -92.1 Q 173 -93.6 172.5 -94.4 L 172.5 -94.4 L 172.5 -94.4 Q 171.9 -95.2 170.8 -95.2 L 170.8 -95.2 L 170.8 -95.2 Q 169.7 -95.2 168.8 -94.8 L 168.8 -94.8 L 168.8 -94.8 Q 167.9 -94.3 166.9 -92.9 L 166.9 -92.9 L 166.9 -92.9 Q 164.6 -89.7 163.2 -82.3 Z M 203.5 -87 L 203.5 -87 L 203.5 -87 Q 204.4 -89.4 204.4 -91.4 L 204.4 -91.4 L 204.4 -91.4 Q 204.4 -95.2 201.4 -95.2 L 201.4 -95.2 L 201.4 -95.2 Q 199.8 -95.2 198.4 -93.7 L 198.4 -93.7 L 198.4 -93.7 Q 197.1 -92.3 197.1 -90.5 L 197.1 -90.5 L 197.1 -90.5 Q 197.1 -89.2 198.2 -88.2 L 198.2 -88.2 L 198.2 -88.2 Q 199.6 -86.8 203.4 -84.5 L 203.4 -84.5 L 203.4 -84.5 Q 207.2 -82.2 208.6 -80.3 L 208.6 -80.3 L 208.6 -80.3 Q 210.1 -78.4 210.1 -75.8 L 210.1 -75.8 L 210.1 -75.8 Q 210.1 -73.2 208.8 -70.9 L 208.8 -70.9 L 208.8 -70.9 Q 207.6 -68.5 205.3 -66.8 L 205.3 -66.8 L 205.3 -66.8 Q 200.5 -63.2 192.8 -63.2 L 192.8 -63.2 L 192.8 -63.2 Q 188.7 -63.2 185.5 -65.4 L 185.5 -65.4 L 185.5 -65.4 Q 182.3 -67.5 182.3 -70 L 182.3 -70 L 182.3 -70 Q 182.3 -72.5 184.1 -74 L 184.1 -74 L 184.1 -74 Q 185.9 -75.5 188.6 -75.5 L 188.6 -75.5 L 188.6 -75.5 Q 191.3 -75.5 193 -74.4 L 193 -74.4 L 193 -74.4 Q 192.1 -72.3 192.1 -70.9 L 192.1 -70.9 L 192.1 -70.9 Q 192.1 -66.7 195.7 -66.7 L 195.7 -66.7 L 195.7 -66.7 Q 197.3 -66.7 198.3 -67.7 L 198.3 -67.7 L 198.3 -67.7 Q 199.3 -68.6 199.3 -70.3 L 199.3 -70.3 L 199.3 -70.3 Q 199.3 -73.5 193.8 -77 L 193.8 -77 L 193.8 -77 Q 189.3 -79.9 188.3 -81.1 L 188.3 -81.1 L 188.3 -81.1 Q 186.6 -83.1 186.6 -85.7 L 186.6 -85.7 L 186.6 -85.7 Q 186.6 -88.3 187.8 -90.7 L 187.8 -90.7 L 187.8 -90.7 Q 189 -93.1 191.2 -94.9 L 191.2 -94.9 L 191.2 -94.9 Q 195.9 -98.4 204 -98.4 L 204 -98.4 L 204 -98.4 Q 208.2 -98.4 210.7 -96.8 L 210.7 -96.8 L 210.7 -96.8 Q 213.1 -95.1 213.1 -92.3 L 213.1 -92.3 L 213.1 -92.3 Q 213.1 -89.5 211.4 -87.9 L 211.4 -87.9 L 211.4 -87.9 Q 209.7 -86.3 206.7 -86.3 L 206.7 -86.3 L 206.7 -86.3 Q 204.6 -86.3 203.5 -87 Z M 254.6 -85.1 L 267.5 -86.3 L 267.5 -86.3 Q 262.9 -76.2 262.9 -64.5 L 262.9 -64.5 L 262.9 -64.5 Q 261.2 -63.2 258.7 -63.2 L 258.7 -63.2 L 258.7 -63.2 Q 256.1 -63.2 254.5 -64.4 L 254.5 -64.4 L 254.5 -64.4 Q 252.9 -65.6 252.6 -66.8 L 252.6 -66.8 L 252.6 -66.8 Q 251 -65.2 248.4 -64.2 L 248.4 -64.2 L 248.4 -64.2 Q 245.8 -63.2 243.1 -63.2 L 243.1 -63.2 L 243.1 -63.2 Q 240.3 -63.2 237.9 -64.1 L 237.9 -64.1 L 237.9 -64.1 Q 235.5 -65 233.7 -67 L 233.7 -67 L 233.7 -67 Q 229.6 -71.4 229.6 -79.6 L 229.6 -79.6 L 229.6 -79.6 Q 229.6 -92.4 236.4 -100.1 L 236.4 -100.1 L 236.4 -100.1 Q 243.5 -108 256 -108 L 256 -108 L 256 -108 Q 264.6 -108 267.7 -103.6 L 267.7 -103.6 L 267.7 -103.6 Q 268.6 -102.2 268.6 -100.5 L 268.6 -100.5 L 268.6 -100.5 Q 268.6 -98.8 267.9 -97.3 L 267.9 -97.3 L 267.9 -97.3 Q 267.2 -95.9 266 -94.7 L 266 -94.7 L 266 -94.7 Q 263.2 -92.2 259.9 -92.2 L 259.9 -92.2 L 259.9 -92.2 Q 258.5 -92.2 257.2 -92.6 L 257.2 -92.6 L 257.2 -92.6 Q 257.5 -94.5 257.5 -96.8 L 257.5 -96.8 L 257.5 -96.8 Q 257.5 -99 257.3 -100 L 257.3 -100 L 257.3 -100 Q 257.2 -101.1 256.8 -101.9 L 256.8 -101.9 L 256.8 -101.9 Q 256 -103.6 254.1 -103.6 L 254.1 -103.6 L 254.1 -103.6 Q 252.3 -103.6 250.3 -101.7 L 250.3 -101.7 L 250.3 -101.7 Q 248.3 -99.7 246.7 -96.5 L 246.7 -96.5 L 246.7 -96.5 Q 243.2 -89.4 243.2 -80.7 L 243.2 -80.7 L 243.2 -80.7 Q 243.2 -76.7 244.7 -73.9 L 244.7 -73.9 L 244.7 -73.9 Q 246.4 -70.9 249.3 -70.9 L 249.3 -70.9 L 249.3 -70.9 Q 250.3 -70.9 251.2 -71.4 L 251.2 -71.4 L 251.2 -71.4 Q 252.2 -71.9 252.6 -72.3 L 252.6 -72.3 L 254.6 -85.1 Z M 273.5 -66.4 L 273.5 -66.4 L 273.5 -66.4 Q 272 -68.1 271.3 -70.7 L 271.3 -70.7 L 271.3 -70.7 Q 270.6 -73.4 270.6 -77.6 L 270.6 -77.6 L 270.6 -77.6 Q 270.6 -81.9 272.1 -85.8 L 272.1 -85.8 L 272.1 -85.8 Q 273.6 -89.7 276.2 -92.6 L 276.2 -92.6 L 276.2 -92.6 Q 281.7 -98.4 290.8 -98.4 L 290.8 -98.4 L 290.8 -98.4 Q 294.1 -98.4 296.5 -97.4 L 296.5 -97.4 L 307.4 -98.4 L 302.7 -73.5 L 302.7 -73.5 Q 302.5 -72.7 302.5 -71.3 L 302.5 -71.3 L 302.5 -71.3 Q 302.5 -69.9 303.3 -69 L 303.3 -69 L 303.3 -69 Q 304.2 -68.1 305.5 -68 L 305.5 -68 L 305.5 -68 Q 304.8 -65.8 302.5 -64.5 L 302.5 -64.5 L 302.5 -64.5 Q 300.2 -63.2 297.6 -63.2 L 297.6 -63.2 L 297.6 -63.2 Q 294.9 -63.2 293.2 -64.2 L 293.2 -64.2 L 293.2 -64.2 Q 291.4 -65.2 290.9 -66.9 L 290.9 -66.9 L 290.9 -66.9 Q 289.9 -65.3 287.7 -64.3 L 287.7 -64.3 L 287.7 -64.3 Q 285.5 -63.2 282.6 -63.2 L 282.6 -63.2 L 282.6 -63.2 Q 279.7 -63.2 277.3 -64 L 277.3 -64 L 277.3 -64 Q 275 -64.8 273.5 -66.4 Z M 287 -92.4 L 287 -92.4 L 287 -92.4 Q 286.2 -91.3 285.6 -89.3 L 285.6 -89.3 L 285.6 -89.3 Q 284.9 -87.4 283.9 -82.2 L 283.9 -82.2 L 283.9 -82.2 Q 282.8 -76.9 282.8 -73.2 L 282.8 -73.2 L 282.8 -73.2 Q 282.8 -69.5 283.4 -68.4 L 283.4 -68.4 L 283.4 -68.4 Q 284 -67.3 285 -67.3 L 285 -67.3 L 285 -67.3 Q 287.1 -67.3 288.6 -69.3 L 288.6 -69.3 L 288.6 -69.3 Q 290.1 -71.2 290.6 -74.7 L 290.6 -74.7 L 294 -93.5 L 294 -93.5 Q 292.7 -94.6 291.1 -94.6 L 291.1 -94.6 L 291.1 -94.6 Q 289.6 -94.6 288.6 -94.1 L 288.6 -94.1 L 288.6 -94.1 Q 287.7 -93.6 287 -92.4 Z M 326.2 -68 L 326.2 -68 L 326.2 -68 Q 324.2 -63.2 317.8 -63.2 L 317.8 -63.2 L 317.8 -63.2 Q 314.6 -63.2 312.6 -65.5 L 312.6 -65.5 L 312.6 -65.5 Q 310.9 -67.3 310.9 -69.5 L 310.9 -69.5 L 310.9 -69.5 Q 310.9 -74.3 313.2 -84.7 L 313.2 -84.7 L 317.8 -109.3 L 330.8 -110.6 L 324.6 -78.2 L 324.6 -78.2 Q 323.5 -73.5 323.5 -71.8 L 323.5 -71.8 L 323.5 -71.8 Q 323.5 -68.2 326.2 -68 Z M 346.9 -68 L 346.9 -68 L 346.9 -68 Q 344.9 -63.2 338.6 -63.2 L 338.6 -63.2 L 338.6 -63.2 Q 335.4 -63.2 333.3 -65.5 L 333.3 -65.5 L 333.3 -65.5 Q 331.7 -67.3 331.7 -69.5 L 331.7 -69.5 L 331.7 -69.5 Q 331.7 -74.3 333.9 -84.7 L 333.9 -84.7 L 338.6 -109.3 L 351.6 -110.6 L 345.4 -78.2 L 345.4 -78.2 Q 344.3 -73.5 344.3 -71.8 L 344.3 -71.8 L 344.3 -71.8 Q 344.3 -68.2 346.9 -68 Z M 378.3 -75.3 L 378.3 -75.3 L 378.3 -75.3 Q 379.9 -74.3 379.9 -71.9 L 379.9 -71.9 L 379.9 -71.9 Q 379.9 -69.5 378.6 -67.9 L 378.6 -67.9 L 378.6 -67.9 Q 377.4 -66.4 375.4 -65.4 L 375.4 -65.4 L 375.4 -65.4 Q 371.3 -63.2 366.9 -63.2 L 366.9 -63.2 L 366.9 -63.2 Q 362.5 -63.2 359.9 -64.2 L 359.9 -64.2 L 359.9 -64.2 Q 357.3 -65.2 355.6 -67 L 355.6 -67 L 355.6 -67 Q 352.2 -70.3 352.2 -76.6 L 352.2 -76.6 L 352.2 -76.6 Q 352.2 -86.2 357.5 -92.1 L 357.5 -92.1 L 357.5 -92.1 Q 363.1 -98.4 372.9 -98.4 L 372.9 -98.4 L 372.9 -98.4 Q 379 -98.4 382 -95.9 L 382 -95.9 L 382 -95.9 Q 384.2 -94 384.2 -90.8 L 384.2 -90.8 L 384.2 -90.8 Q 384.2 -79.6 364.8 -79.6 L 364.8 -79.6 L 364.8 -79.6 Q 364.5 -77.9 364.5 -76.5 L 364.5 -76.5 L 364.5 -76.5 Q 364.5 -73.5 365.8 -72.4 L 365.8 -72.4 L 365.8 -72.4 Q 367.1 -71.3 369.6 -71.3 L 369.6 -71.3 L 369.6 -71.3 Q 372 -71.3 374.6 -72.4 L 374.6 -72.4 L 374.6 -72.4 Q 377.2 -73.5 378.3 -75.3 Z M 365.2 -82.3 L 365.2 -82.3 L 365.2 -82.3 Q 369.7 -82.3 372.4 -85.1 L 372.4 -85.1 L 372.4 -85.1 Q 375 -87.8 375 -92.1 L 375 -92.1 L 375 -92.1 Q 375 -93.6 374.4 -94.4 L 374.4 -94.4 L 374.4 -94.4 Q 373.9 -95.2 372.8 -95.2 L 372.8 -95.2 L 372.8 -95.2 Q 371.7 -95.2 370.8 -94.8 L 370.8 -94.8 L 370.8 -94.8 Q 369.9 -94.3 368.9 -92.9 L 368.9 -92.9 L 368.9 -92.9 Q 366.5 -89.7 365.2 -82.3 Z M 406.4 -82.5 L 406.4 -82.5 L 406.4 -82.5 Q 408.7 -86.6 408.7 -90.8 L 408.7 -90.8 L 408.7 -90.8 Q 408.7 -93.5 406.7 -93.5 L 406.7 -93.5 L 406.7 -93.5 Q 405.2 -93.5 403.6 -90.9 L 403.6 -90.9 L 403.6 -90.9 Q 401.9 -88.3 401.4 -84.9 L 401.4 -84.9 L 398.1 -64.5 L 384.8 -63.2 L 391.4 -97.2 L 401.9 -98.4 L 400.8 -92 L 400.8 -92 Q 403.9 -98.4 411 -98.4 L 411 -98.4 L 411 -98.4 Q 414.7 -98.4 416.7 -96.5 L 416.7 -96.5 L 416.7 -96.5 Q 418.7 -94.6 418.7 -90.7 L 418.7 -90.7 L 418.7 -90.7 Q 418.7 -86.7 416.1 -84.2 L 416.1 -84.2 L 416.1 -84.2 Q 413.5 -81.7 409.1 -81.7 L 409.1 -81.7 L 409.1 -81.7 Q 407.2 -81.7 406.4 -82.5 Z M 440.1 -71.8 L 440.1 -71.8 L 440.1 -71.8 Q 436.8 -68.3 430.7 -68.3 L 430.7 -68.3 L 430.7 -68.3 Q 423.1 -68.3 421.5 -73.9 L 421.5 -73.9 L 421.5 -73.9 Q 420.9 -75.5 420.9 -77.4 L 420.9 -77.4 L 420.9 -77.4 Q 420.9 -79.2 421.3 -81.2 L 421.3 -81.2 L 424.3 -97.2 L 437.3 -98.4 L 433.8 -79.8 L 433.8 -79.8 Q 433.7 -79 433.5 -78.1 L 433.5 -78.1 L 433.5 -78.1 Q 433.3 -77.2 433.3 -76.3 L 433.3 -76.3 L 433.3 -76.3 Q 433.3 -75.3 433.6 -74.7 L 433.6 -74.7 L 433.6 -74.7 Q 433.9 -74.1 434.4 -73.7 L 434.4 -73.7 L 434.4 -73.7 Q 435.2 -73.2 436.5 -73.2 L 436.5 -73.2 L 436.5 -73.2 Q 437.9 -73.2 439.1 -74.9 L 439.1 -74.9 L 439.1 -74.9 Q 440.3 -76.6 440.8 -79.4 L 440.8 -79.4 L 444.4 -97.2 L 457 -98.4 L 452.2 -73.3 L 452.2 -73.3 Q 449.8 -61 444.9 -56.1 L 444.9 -56.1 L 444.9 -56.1 Q 442.4 -53.6 439.2 -52.7 L 439.2 -52.7 L 439.2 -52.7 Q 436 -51.7 431.8 -51.7 L 431.8 -51.7 L 431.8 -51.7 Q 425.1 -51.7 421.3 -53.8 L 421.3 -53.8 L 421.3 -53.8 Q 417.4 -55.9 417.4 -59.4 L 417.4 -59.4 L 417.4 -59.4 Q 417.4 -62 419.4 -63.5 L 419.4 -63.5 L 419.4 -63.5 Q 421.4 -65 424.5 -65 L 424.5 -65 L 424.5 -65 Q 427.2 -65 429.2 -63.9 L 429.2 -63.9 L 429.2 -63.9 Q 430.4 -63.2 431 -62.3 L 431 -62.3 L 431 -62.3 Q 429.5 -61 429.5 -58.9 L 429.5 -58.9 L 429.5 -58.9 Q 429.5 -56.1 432.1 -56.1 L 432.1 -56.1 L 432.1 -56.1 Q 436.3 -56.1 438.7 -65.8 L 438.7 -65.8 L 438.7 -65.8 Q 439.4 -68.7 440.1 -71.8 Z" fill="url(#editing-sticker-gradient)" stroke="#000000" stroke-width="2.5"></path></g></g><style>text {
  font-size: 64px;
  font-family: Arial Black;
  dominant-baseline: central;
  text-anchor: middle;
}</style></svg>